<svg width="25" height="24" viewBox="0 0 25 24" fill="none" xmlns="http://www.w3.org/2000/svg">
<path d="M17.255 2H7.74502C6.58614 2 6.00671 2 5.53939 2.16261C4.65322 2.47096 3.95748 3.18719 3.65795 4.09946C3.5 4.58055 3.5 5.17705 3.5 6.37006V20.3742C3.5 21.2324 4.485 21.6878 5.1081 21.1176C5.47417 20.7826 6.02583 20.7826 6.3919 21.1176L6.875 21.5597C7.51659 22.1468 8.48341 22.1468 9.125 21.5597C9.76659 20.9726 10.7334 20.9726 11.375 21.5597C12.0166 22.1468 12.9834 22.1468 13.625 21.5597C14.2666 20.9726 15.2334 20.9726 15.875 21.5597C16.5166 22.1468 17.4834 22.1468 18.125 21.5597L18.6081 21.1176C18.9742 20.7826 19.5258 20.7826 19.8919 21.1176C20.515 21.6878 21.5 21.2324 21.5 20.3742V6.37006C21.5 5.17705 21.5 4.58055 21.342 4.09946C21.0425 3.18719 20.3468 2.47096 19.4606 2.16261C18.9933 2 18.4139 2 17.255 2Z" stroke="black" stroke-width="2"/>
<path d="M11 11L17.5 11" stroke="black" stroke-width="2" stroke-linecap="round"/>
<path d="M7.5 11H8" stroke="black" stroke-width="2" stroke-linecap="round"/>
<path d="M7.5 7.5H8" stroke="black" stroke-width="2" stroke-linecap="round"/>
<path d="M7.5 14.5H8" stroke="black" stroke-width="2" stroke-linecap="round"/>
<path d="M11 7.5H17.5" stroke="black" stroke-width="2" stroke-linecap="round"/>
<path d="M11 14.5H17.5" stroke="black" stroke-width="2" stroke-linecap="round"/>
</svg>
