<svg width="30" height="30" viewBox="0 0 30 30" fill="none" xmlns="http://www.w3.org/2000/svg">
<path d="M27.5 15C27.5 20.8926 27.5 23.8388 25.6694 25.6694C23.8388 27.5 20.8926 27.5 15 27.5C9.10744 27.5 6.16117 27.5 4.33058 25.6694C2.5 23.8388 2.5 20.8926 2.5 15C2.5 9.10744 2.5 6.16117 4.33058 4.33058C6.16117 2.5 9.10744 2.5 15 2.5" stroke="black" stroke-width="2" stroke-linecap="round"/>
<path d="M2.5 15.6249L4.68948 13.7091C5.82857 12.7124 7.54534 12.7696 8.61561 13.8398L13.9778 19.202C14.8368 20.061 16.1891 20.1781 17.183 19.4796L17.5558 19.2176C18.986 18.2125 20.9212 18.3289 22.2206 19.4984L26.25 23.1249" stroke="black" stroke-width="2" stroke-linecap="round"/>
<path d="M27.5 2.50003L20 10M20 2.5L27.4999 9.99997" stroke="black" stroke-width="2" stroke-linecap="round"/>
</svg>
