<svg width="33" height="33" viewBox="0 0 33 33" fill="none" xmlns="http://www.w3.org/2000/svg">
<path d="M19.5366 18.6342C22.4159 18.6342 24.75 16.3096 24.75 13.4421C24.75 10.5746 22.4159 8.25 19.5366 8.25C16.6573 8.25 14.3232 10.5746 14.3232 13.4421C14.3232 14.7703 14.9294 15.7363 14.9294 15.7363L8.62488 22.0151C8.34199 22.2968 7.94593 23.0293 8.62488 23.7055L9.35233 24.43C9.63522 24.6715 10.3465 25.0096 10.9284 24.43L11.7771 23.5848C12.6258 24.43 13.5958 23.947 13.9595 23.464C14.5657 22.6188 13.8382 21.7736 13.8382 21.7736L14.0807 21.5321C15.2446 22.6912 16.2631 22.0151 16.6268 21.5321C17.233 20.6869 16.6268 19.8416 16.6268 19.8416C16.3843 19.3586 15.8994 19.3586 16.5055 18.7549L17.233 18.0304C17.815 18.5134 19.0112 18.6342 19.5366 18.6342Z" stroke="black" stroke-width="2" stroke-linejoin="round"/>
<path d="M2.75 16.5C2.75 10.0182 2.75 6.77728 4.76364 4.76364C6.77728 2.75 10.0182 2.75 16.5 2.75C22.9818 2.75 26.2227 2.75 28.2364 4.76364C30.25 6.77728 30.25 10.0182 30.25 16.5C30.25 22.9818 30.25 26.2227 28.2364 28.2364C26.2227 30.25 22.9818 30.25 16.5 30.25C10.0182 30.25 6.77728 30.25 4.76364 28.2364C2.75 26.2227 2.75 22.9818 2.75 16.5Z" stroke="black" stroke-width="2"/>
</svg>
