<svg width="30" height="30" viewBox="0 0 30 30" fill="none" xmlns="http://www.w3.org/2000/svg">
<path d="M2.5 13.75C2.5 9.03595 2.5 6.67893 3.96447 5.21447C5.42893 3.75 7.78595 3.75 12.5 3.75H17.5C22.214 3.75 24.5711 3.75 26.0355 5.21447C27.5 6.67893 27.5 9.03595 27.5 13.75V16.25C27.5 20.964 27.5 23.3211 26.0355 24.7855C24.5711 26.25 22.214 26.25 17.5 26.25H12.5C7.78595 26.25 5.42893 26.25 3.96447 24.7855C2.5 23.3211 2.5 20.964 2.5 16.25V13.75Z" stroke="#626262" stroke-width="2"/>
<path d="M18.75 26.25L18.75 3.75" stroke="#626262" stroke-width="2" stroke-linecap="round"/>
</svg>
