<svg width="115" height="69" viewBox="0 0 115 69" fill="none" xmlns="http://www.w3.org/2000/svg">
<g filter="url(#filter0_f_122_1089)">
<path d="M21.6775 52.9222H93.3678C94.1413 52.9222 96.0135 53.1233 97.5495 53.3713C99.0854 53.6193 99.6099 53.8203 98.7209 53.8203H16.3244C15.4354 53.8203 15.9598 53.6193 17.4958 53.3713C19.0318 53.1233 20.904 52.9222 21.6775 52.9222Z" fill="black" fill-opacity="0.4"/>
</g>
<g filter="url(#filter1_dd_122_1089)">
<path d="M20.6426 5.44871C20.6426 4.24155 20.6426 3.63797 20.8793 3.17689C21.0876 2.77132 21.4198 2.44158 21.8285 2.23493C22.2932 2 22.9014 2 24.1179 2H90.8814C92.0978 2 92.7061 2 93.1707 2.23493C93.5794 2.44158 93.9117 2.77132 94.1199 3.17689C94.3567 3.63797 94.3567 4.24154 94.3567 5.4487V48.7551C94.3567 49.9623 94.3567 50.5658 94.1199 51.0269C93.9117 51.4325 93.5794 51.7622 93.1707 51.9689C92.7061 52.2038 92.0978 52.2038 90.8814 52.2038H24.1179C22.9014 52.2038 22.2932 52.2038 21.8285 51.9689C21.4198 51.7622 21.0876 51.4325 20.8793 51.0269C20.6426 50.5658 20.6426 49.9623 20.6426 48.7551V5.44871Z" fill="#3A4245"/>
</g>
<path d="M20.8237 5.34088C20.8237 4.23432 20.8237 3.68103 21.0407 3.25838C21.2316 2.88661 21.5362 2.58435 21.9109 2.39492C22.3368 2.17957 22.8943 2.17957 24.0094 2.17957H90.9901C92.1052 2.17957 92.6628 2.17957 93.0887 2.39492C93.4633 2.58435 93.7679 2.88661 93.9588 3.25838C94.1758 3.68103 94.1758 4.23431 94.1758 5.34088V48.8628C94.1758 49.9694 94.1758 50.5227 93.9588 50.9453C93.7679 51.3171 93.4633 51.6194 93.0887 51.8088C92.6628 52.0241 92.1052 52.0241 90.9901 52.0241H24.0094C22.8943 52.0241 22.3368 52.0241 21.9109 51.8088C21.5362 51.6194 21.2316 51.3171 21.0407 50.9453C20.8237 50.5227 20.8237 49.9694 20.8237 48.8628V5.34088Z" fill="#262C2D"/>
<path d="M21.0049 5.23317C21.0049 4.22721 21.0049 3.72422 21.2022 3.34C21.3757 3.00202 21.6526 2.72723 21.9932 2.55503C22.3804 2.35925 22.8872 2.35925 23.901 2.35925H91.0989C92.1126 2.35925 92.6194 2.35925 93.0066 2.55503C93.3472 2.72723 93.6241 3.00202 93.7977 3.34C93.9949 3.72422 93.9949 4.22721 93.9949 5.23317V48.9706C93.9949 49.9766 93.9949 50.4796 93.7977 50.8638C93.6241 51.2018 93.3472 51.4766 93.0066 51.6488C92.6194 51.8446 92.1126 51.8446 91.0989 51.8446H23.901C22.8872 51.8446 22.3804 51.8446 21.9932 51.6488C21.6526 51.4766 21.3757 51.2018 21.2022 50.8638C21.0049 50.4796 21.0049 49.9766 21.0049 48.9706V5.23317Z" fill="#121515"/>
<rect x="21.0049" y="49.4646" width="72.9901" height="1.34715" fill="#262C2D"/>
<path fill-rule="evenodd" clip-rule="evenodd" d="M57.4999 4.02069C57.6373 4.02069 57.7487 3.91011 57.7487 3.77371C57.7487 3.63731 57.6373 3.52673 57.4999 3.52673C57.3624 3.52673 57.251 3.63731 57.251 3.77371C57.251 3.91011 57.3624 4.02069 57.4999 4.02069Z" fill="#262C2D"/>
<path fill-rule="evenodd" clip-rule="evenodd" d="M57.4998 3.92811C57.5857 3.92811 57.6553 3.859 57.6553 3.77375C57.6553 3.68849 57.5857 3.61938 57.4998 3.61938C57.4139 3.61938 57.3442 3.68849 57.3442 3.77375C57.3442 3.859 57.4139 3.92811 57.4998 3.92811Z" fill="#121515"/>
<path opacity="0.4" fill-rule="evenodd" clip-rule="evenodd" d="M57.4999 3.7429C57.517 3.7429 57.531 3.72907 57.531 3.71202C57.531 3.69497 57.517 3.68115 57.4999 3.68115C57.4827 3.68115 57.4688 3.69497 57.4688 3.71202C57.4688 3.72907 57.4827 3.7429 57.4999 3.7429Z" fill="#636F73"/>
<path d="M12 50.9016C12 50.852 12.0405 50.8118 12.0905 50.8118H57.4095C57.4595 50.8118 57.5 50.852 57.5 50.9016V52.2038H12V50.9016Z" fill="url(#paint0_linear_122_1089)"/>
<path d="M102.978 50.9016C102.978 50.852 102.937 50.8118 102.887 50.8118H57.568C57.5181 50.8118 57.4775 50.852 57.4775 50.9016V52.2038H102.978V50.9016Z" fill="url(#paint1_linear_122_1089)"/>
<path d="M52.0471 51.7997H62.9526C63.5274 51.7997 63.9934 51.3574 63.9934 50.8118H51.0063C51.0063 51.3574 51.4723 51.7997 52.0471 51.7997Z" fill="#4E4F53"/>
<path d="M52.0471 51.7997H62.9526C63.5274 51.7997 63.9934 51.3574 63.9934 50.8118H51.0063C51.0063 51.3574 51.4723 51.7997 52.0471 51.7997Z" fill="url(#paint2_linear_122_1089)"/>
<path d="M103 52.2041C102.981 52.216 100.977 53.4609 94.4697 53.4609H20.5303C14.0228 53.4609 12.019 52.216 12 52.2041H103Z" fill="url(#paint3_linear_122_1089)"/>
<defs>
<filter id="filter0_f_122_1089" x="0.891602" y="37.9222" width="113.262" height="30.8981" filterUnits="userSpaceOnUse" color-interpolation-filters="sRGB">
<feFlood flood-opacity="0" result="BackgroundImageFix"/>
<feBlend mode="normal" in="SourceGraphic" in2="BackgroundImageFix" result="shape"/>
<feGaussianBlur stdDeviation="7.5" result="effect1_foregroundBlur_122_1089"/>
</filter>
<filter id="filter1_dd_122_1089" x="16.6426" y="0" width="81.7139" height="58.2039" filterUnits="userSpaceOnUse" color-interpolation-filters="sRGB">
<feFlood flood-opacity="0" result="BackgroundImageFix"/>
<feColorMatrix in="SourceAlpha" type="matrix" values="0 0 0 0 0 0 0 0 0 0 0 0 0 0 0 0 0 0 127 0" result="hardAlpha"/>
<feOffset/>
<feGaussianBlur stdDeviation="1"/>
<feColorMatrix type="matrix" values="0 0 0 0 0 0 0 0 0 0.0823529 0 0 0 0 0.25098 0 0 0 0.14 0"/>
<feBlend mode="normal" in2="BackgroundImageFix" result="effect1_dropShadow_122_1089"/>
<feColorMatrix in="SourceAlpha" type="matrix" values="0 0 0 0 0 0 0 0 0 0 0 0 0 0 0 0 0 0 127 0" result="hardAlpha"/>
<feOffset dy="2"/>
<feGaussianBlur stdDeviation="2"/>
<feColorMatrix type="matrix" values="0 0 0 0 0 0 0 0 0 0.0823529 0 0 0 0 0.25098 0 0 0 0.05 0"/>
<feBlend mode="normal" in2="effect1_dropShadow_122_1089" result="effect2_dropShadow_122_1089"/>
<feBlend mode="normal" in="SourceGraphic" in2="effect2_dropShadow_122_1089" result="shape"/>
</filter>
<linearGradient id="paint0_linear_122_1089" x1="12" y1="51.5302" x2="57.5" y2="51.5302" gradientUnits="userSpaceOnUse">
<stop stop-color="#303135"/>
<stop offset="0.0218797" stop-color="#535458"/>
<stop offset="0.0363004" stop-color="#4D4E52"/>
<stop offset="0.05818" stop-color="#333438"/>
<stop offset="0.0865241" stop-color="#35363A"/>
<stop offset="0.135753" stop-color="#4E4F53"/>
<stop offset="0.756906" stop-color="#818286"/>
<stop offset="1" stop-color="#818286"/>
</linearGradient>
<linearGradient id="paint1_linear_122_1089" x1="102.978" y1="51.5302" x2="57.4775" y2="51.5302" gradientUnits="userSpaceOnUse">
<stop stop-color="#303135"/>
<stop offset="0.0218797" stop-color="#535458"/>
<stop offset="0.0363004" stop-color="#4D4E52"/>
<stop offset="0.05818" stop-color="#333438"/>
<stop offset="0.0865241" stop-color="#35363A"/>
<stop offset="0.135753" stop-color="#4E4F53"/>
<stop offset="0.756906" stop-color="#818286"/>
<stop offset="1" stop-color="#818286"/>
</linearGradient>
<linearGradient id="paint2_linear_122_1089" x1="51.0063" y1="51.3057" x2="63.9934" y2="51.3057" gradientUnits="userSpaceOnUse">
<stop stop-opacity="0.5"/>
<stop offset="0.139373" stop-color="#818487" stop-opacity="0"/>
<stop offset="0.860627" stop-color="#818487" stop-opacity="0"/>
<stop offset="1" stop-opacity="0.5"/>
</linearGradient>
<linearGradient id="paint3_linear_122_1089" x1="57.5" y1="52.2041" x2="57.5" y2="53.4609" gradientUnits="userSpaceOnUse">
<stop stop-color="#303135"/>
<stop offset="1" stop-color="#08090D"/>
</linearGradient>
</defs>
</svg>
